HIERARCHY
ROOT joint_0
{
	OFFSET 0.000000 0.000000 0.000000
	CHANNELS 6 Xposition Yposition Zposition Zrotation Yrotation Xrotation 
	JOINT joint_1
	{
		OFFSET 6.590088 -1.122192 114.019043
		CHANNELS 3 Zrotation Yrotation Xrotation
		JOINT joint_2
		{
			OFFSET -5.956055 -0.820435 104.151001
			CHANNELS 3 Zrotation Yrotation Xrotation
			JOINT joint_3
			{
				OFFSET -7.343506 -1.103027 103.942993
				CHANNELS 3 Zrotation Yrotation Xrotation
				JOINT joint_4
				{
					OFFSET 3.109131 -2.857056 147.715942
					CHANNELS 3 Zrotation Yrotation Xrotation
					JOINT joint_5
					{
						OFFSET 28.592285 -2.852295 87.703979
						CHANNELS 3 Zrotation Yrotation Xrotation
						End Site
						{
							OFFSET 0.000000 0.000000 0.000000
						}
					}
				}
				JOINT joint_6
				{
					OFFSET -0.332520 -33.687378 82.401978
					CHANNELS 3 Zrotation Yrotation Xrotation
					JOINT joint_7
					{
						OFFSET -7.397461 -168.719177 -22.750977
						CHANNELS 3 Zrotation Yrotation Xrotation
						JOINT joint_8
						{
							OFFSET 17.065918 -24.903137 -272.721069
							CHANNELS 3 Zrotation Yrotation Xrotation
							JOINT joint_9
							{
								OFFSET 33.311279 -37.031616 -278.192993
								CHANNELS 3 Zrotation Yrotation Xrotation
								End Site
								{
									OFFSET 0.000000 0.000000 0.000000
								}
							}
						}
					}
				}
				JOINT joint_10
				{
					OFFSET 3.914307 30.461670 83.552979
					CHANNELS 3 Zrotation Yrotation Xrotation
					JOINT joint_11
					{
						OFFSET 15.543701 166.845459 -30.963013
						CHANNELS 3 Zrotation Yrotation Xrotation
						JOINT joint_12
						{
							OFFSET 35.734863 35.017700 -269.786011
							CHANNELS 3 Zrotation Yrotation Xrotation
							JOINT joint_13
							{
								OFFSET 70.506592 13.977783 -273.320007
								CHANNELS 3 Zrotation Yrotation Xrotation
								End Site
								{
									OFFSET 0.000000 0.000000 0.000000
								}
							}
						}
					}
				}
			}
		}
	}
	JOINT joint_14
	{
		OFFSET -0.314697 -95.093994 -116.004028
		CHANNELS 3 Zrotation Yrotation Xrotation
		JOINT joint_15
		{
			OFFSET -22.490723 2.017883 -455.510986
			CHANNELS 3 Zrotation Yrotation Xrotation
			JOINT joint_16
			{
				OFFSET -46.427490 7.144104 -496.360985
				CHANNELS 3 Zrotation Yrotation Xrotation
				JOINT joint_17
				{
					OFFSET 209.055420 -37.122803 -85.191002
					CHANNELS 3 Zrotation Yrotation Xrotation
					End Site
					{
						OFFSET 0.000000 0.000000 0.000000
					}
				}
			}
		}
	}
	JOINT joint_18
	{
		OFFSET 5.652832 94.642578 -116.244019
		CHANNELS 3 Zrotation Yrotation Xrotation
		JOINT joint_19
		{
			OFFSET -12.379883 -7.332642 -455.843994
			CHANNELS 3 Zrotation Yrotation Xrotation
			JOINT joint_20
			{
				OFFSET -45.227051 -8.172241 -496.457985
				CHANNELS 3 Zrotation Yrotation Xrotation
				JOINT joint_21
				{
					OFFSET 210.522949 -11.530396 -88.809004
					CHANNELS 3 Zrotation Yrotation Xrotation
					End Site
					{
						OFFSET 0.000000 0.000000 0.000000
					}
				}
			}
		}
	}
}
MOTION
Frames: 12
Frame Time: 0.016667
-2916.542480 980.493896 1183.739990 0.387565 0.199658 -0.380604 0.081585 -1.024056 -1.150558 0.170510 0.147138 0.248364 0.136880 -0.172956 -0.177705 -0.166753 1.301440 0.639356 0.000000 0.000000 0.000000 1.039284 -0.953843 2.274299 -0.081067 -0.692050 -0.312134 -0.372552 2.627888 -0.152668 0.000000 0.000000 0.000000 0.588459 -0.258723 0.013667 0.004852 -0.228098 -1.477704 1.028393 2.534154 3.535413 0.000000 0.000000 0.000000 0.569512 -2.292299 -0.572508 0.574237 0.833756 -0.361505 0.504273 2.323732 0.618170 0.000000 0.000000 0.000000 1.499102 -1.557912 -1.084568 1.439718 -0.532531 0.560193 1.381199 2.281675 0.707385 0.000000 0.000000 0.000000 
-2916.509521 980.548767 1183.713013 0.386598 0.185444 -0.381430 0.077852 -1.030122 -1.147357 0.166627 0.147497 0.247894 0.133074 -0.173178 -0.177022 -0.166848 1.320248 0.641527 0.000000 0.000000 0.000000 1.045456 -0.957839 2.307702 -0.080528 -0.693821 -0.314640 -0.371240 2.625099 -0.144810 0.000000 0.000000 0.000000 0.592880 -0.254755 -0.007294 0.003513 -0.226684 -1.482720 1.023919 2.522308 3.519720 0.000000 0.000000 0.000000 0.571480 -2.290613 -0.570096 0.576821 0.861742 -0.368957 0.505731 2.320092 0.618120 0.000000 0.000000 0.000000 1.500488 -1.546671 -1.090806 1.440707 -0.520726 0.568148 1.383105 2.278518 0.708017 0.000000 0.000000 0.000000 
-2916.471680 980.607483 1183.686035 0.382897 0.173224 -0.382457 0.074795 -1.038672 -1.141474 0.163144 0.149255 0.244750 0.129942 -0.174355 -0.174769 -0.165937 1.336980 0.640416 0.000000 0.000000 0.000000 1.050941 -0.958932 2.341170 -0.079816 -0.692676 -0.319962 -0.368426 2.616427 -0.131110 0.000000 0.000000 0.000000 0.597240 -0.249110 -0.027527 0.002107 -0.223412 -1.488960 1.019020 2.509967 3.502418 0.000000 0.000000 0.000000 0.574597 -2.289208 -0.569113 0.580355 0.885974 -0.374140 0.508355 2.318217 0.618856 0.000000 0.000000 0.000000 1.502186 -1.536419 -1.096139 1.442074 -0.510645 0.574949 1.385205 2.277367 0.708841 0.000000 0.000000 0.000000 
-2916.426270 980.670959 1183.657959 0.374371 0.162784 -0.383381 0.073628 -1.048120 -1.134102 0.161528 0.150881 0.242584 0.128525 -0.175554 -0.173720 -0.164285 1.348440 0.636512 0.000000 0.000000 0.000000 1.054491 -0.955945 2.376381 -0.078738 -0.687412 -0.331460 -0.362788 2.595854 -0.107314 0.000000 0.000000 0.000000 0.599992 -0.242112 -0.045153 0.000420 -0.218048 -1.497870 1.013475 2.496601 3.482719 0.000000 0.000000 0.000000 0.578972 -2.287246 -0.571421 0.584701 0.905513 -0.374175 0.512288 2.316225 0.620105 0.000000 0.000000 0.000000 1.505480 -1.526392 -1.099626 1.445213 -0.502662 0.578103 1.388609 2.278312 0.710330 0.000000 0.000000 0.000000 
-2916.377930 980.736328 1183.630005 0.363065 0.153679 -0.384316 0.072590 -1.057026 -1.125986 0.159946 0.150333 0.239906 0.127302 -0.175906 -0.171382 -0.161640 1.358002 0.629387 0.000000 0.000000 0.000000 1.059127 -0.950509 2.411650 -0.077475 -0.679426 -0.346199 -0.355595 2.569361 -0.077241 0.000000 0.000000 0.000000 0.604206 -0.233627 -0.062181 -0.001363 -0.211295 -1.508233 1.007656 2.482822 3.462001 0.000000 0.000000 0.000000 0.584232 -2.285012 -0.575019 0.589748 0.921398 -0.372191 0.517122 2.316021 0.622039 0.000000 0.000000 0.000000 1.509206 -1.516860 -1.102412 1.448844 -0.496156 0.580240 1.392329 2.281369 0.712069 0.000000 0.000000 0.000000 
-2916.338867 980.798950 1183.602051 0.351517 0.144246 -0.384482 0.073271 -1.062753 -1.120653 0.160289 0.149954 0.238445 0.127827 -0.175171 -0.170446 -0.160006 1.363889 0.624987 0.000000 0.000000 0.000000 1.056501 -0.946122 2.448996 -0.076398 -0.673384 -0.360343 -0.349492 2.548704 -0.049702 0.000000 0.000000 0.000000 0.600893 -0.226295 -0.077937 -0.002931 -0.204379 -1.516053 1.001784 2.470260 3.440793 0.000000 0.000000 0.000000 0.590678 -2.283732 -0.579119 0.596001 0.937840 -0.370886 0.523039 2.321074 0.625348 0.000000 0.000000 0.000000 1.512701 -1.507360 -1.106929 1.452151 -0.490045 0.584374 1.395889 2.285470 0.713796 0.000000 0.000000 0.000000 
-2916.318848 980.854309 1183.576050 0.342017 0.132233 -0.382948 0.074725 -1.058253 -1.120406 0.161651 0.148250 0.237825 0.129321 -0.172726 -0.169835 -0.158915 1.365766 0.621840 0.000000 0.000000 0.000000 1.048018 -0.945151 2.489019 -0.075572 -0.671449 -0.373399 -0.345264 2.538468 -0.026046 0.000000 0.000000 0.000000 0.591489 -0.222015 -0.092779 -0.004644 -0.199685 -1.520009 0.995835 2.460970 3.418623 0.000000 0.000000 0.000000 0.598077 -2.282887 -0.583981 0.603272 0.957187 -0.371187 0.529736 2.334240 0.630418 0.000000 0.000000 0.000000 1.514597 -1.496679 -1.115048 1.453660 -0.483685 0.592882 1.398055 2.292399 0.715090 0.000000 0.000000 0.000000 
-2916.308105 980.906982 1183.548950 0.332819 0.119701 -0.380610 0.077775 -1.049638 -1.123440 0.164881 0.146004 0.239338 0.132419 -0.169789 -0.170974 -0.158732 1.365141 0.621218 0.000000 0.000000 0.000000 1.032655 -0.944836 2.530516 -0.074938 -0.671070 -0.385122 -0.342152 2.533808 -0.005425 0.000000 0.000000 0.000000 0.574339 -0.218637 -0.106062 -0.006122 -0.194446 -1.522039 0.989943 2.452901 3.396400 0.000000 0.000000 0.000000 0.606231 -2.282612 -0.589391 0.611306 0.976748 -0.372085 0.537101 2.352513 0.636667 0.000000 0.000000 0.000000 1.516002 -1.485753 -1.125077 1.454579 -0.477845 0.603634 1.399825 2.300424 0.716275 0.000000 0.000000 0.000000 
-2916.299316 980.958679 1183.521973 0.321145 0.111532 -0.379194 0.080633 -1.049643 -1.126765 0.168012 0.144637 0.240843 0.135416 -0.168084 -0.171830 -0.158521 1.366336 0.620690 0.000000 0.000000 0.000000 1.019368 -0.943356 2.573142 -0.074979 -0.669083 -0.397662 -0.340251 2.533826 0.010357 0.000000 0.000000 0.000000 0.559886 -0.213163 -0.121679 -0.006764 -0.187888 -1.521782 0.985672 2.448671 3.379898 0.000000 0.000000 0.000000 0.615134 -2.286128 -0.592737 0.620291 0.993852 -0.374859 0.545245 2.371513 0.643363 0.000000 0.000000 0.000000 1.518421 -1.478323 -1.134824 1.456477 -0.474096 0.615260 1.402605 2.307541 0.717836 0.000000 0.000000 0.000000 
-2916.281494 981.011108 1183.493042 0.304849 0.111676 -0.379638 0.084181 -1.067988 -1.128920 0.171905 0.146176 0.241802 0.139129 -0.168956 -0.173045 -0.158164 1.372579 0.620204 0.000000 0.000000 0.000000 1.009239 -0.938508 2.616625 -0.076018 -0.663220 -0.408658 -0.340189 2.539985 0.017723 0.000000 0.000000 0.000000 0.547334 -0.203907 -0.139106 -0.006411 -0.178053 -1.519721 0.983420 2.450366 3.370285 0.000000 0.000000 0.000000 0.624889 -2.295272 -0.592859 0.630395 1.004740 -0.379934 0.554340 2.389697 0.650301 0.000000 0.000000 0.000000 1.522585 -1.476994 -1.143332 1.460104 -0.474341 0.627734 1.407099 2.313110 0.720033 0.000000 0.000000 0.000000 
-2916.264648 981.063538 1183.463013 0.286084 0.115824 -0.380882 0.088417 -1.094190 -1.132182 0.176709 0.148823 0.244294 0.143552 -0.173262 -0.174879 -0.157840 1.383898 0.620318 0.000000 0.000000 0.000000 0.998223 -0.931310 2.660832 -0.077744 -0.655014 -0.419759 -0.341299 2.550174 0.019825 0.000000 0.000000 0.000000 0.533634 -0.191864 -0.158484 -0.005018 -0.165399 -1.515625 0.982766 2.455440 3.366348 0.000000 0.000000 0.000000 0.635224 -2.307515 -0.591310 0.641233 1.012765 -0.386442 0.564051 2.407925 0.657496 0.000000 0.000000 0.000000 1.527767 -1.478599 -1.151829 1.464714 -0.476842 0.641236 1.412625 2.317468 0.722599 0.000000 0.000000 0.000000 
-2916.264648 981.117554 1183.431030 0.268612 0.117396 -0.381973 0.090540 -1.117271 -1.135171 0.179257 0.151355 0.245049 0.145958 -0.174985 -0.175481 -0.157967 1.390615 0.621358 0.000000 0.000000 0.000000 0.990110 -0.926261 2.706041 -0.079460 -0.648304 -0.435949 -0.341862 2.556883 0.022516 0.000000 0.000000 0.000000 0.525708 -0.181023 -0.179463 -0.003178 -0.155107 -1.511304 0.983649 2.460549 3.368515 0.000000 0.000000 0.000000 0.644697 -2.319027 -0.588783 0.651352 1.023683 -0.394701 0.572880 2.423368 0.663837 0.000000 0.000000 0.000000 1.532995 -1.479107 -1.161589 1.469271 -0.477135 0.656432 1.418385 2.317069 0.725001 0.000000 0.000000 0.000000 
